STARTFONT 2.1
FONT -FontForge-Zen Tokyo Zoo-Book-R-Normal--12-120-72-72-P-56-ISO10646-1
SIZE 12 72 72
FONTBOUNDINGBOX 15 17 -1 -3
COMMENT "Generated by fontforge, http://fontforge.sourceforge.net"
COMMENT "Copyright 2021 The Zen Tokyo Zoo Project Authors (https://github.com/googlefonts/zen-tokyo-zoo)"
STARTPROPERTIES 39
FOUNDRY "FontForge"
FAMILY_NAME "Zen Tokyo Zoo"
WEIGHT_NAME "Book"
SLANT "R"
SETWIDTH_NAME "Normal"
ADD_STYLE_NAME ""
PIXEL_SIZE 12
POINT_SIZE 120
RESOLUTION_X 72
RESOLUTION_Y 72
SPACING "P"
AVERAGE_WIDTH 56
CHARSET_REGISTRY "ISO10646"
CHARSET_ENCODING "1"
FONTNAME_REGISTRY ""
CHARSET_COLLECTIONS "ISO10646-1"
FONT_NAME "ZenTokyoZoo-Regular"
FACE_NAME "Zen Tokyo Zoo Regular"
COPYRIGHT "Copyright 2021 The Zen Tokyo Zoo Project Authors (https://github.com/googlefonts/zen-tokyo-zoo)"
FONT_VERSION "1.002; ttfautohint (v1.8.3)"
FONT_ASCENT 10
FONT_DESCENT 2
UNDERLINE_POSITION -2
UNDERLINE_THICKNESS 1
X_HEIGHT 4
CAP_HEIGHT 9
RAW_ASCENT 800
RAW_DESCENT 200
NORM_SPACE 3
RELATIVE_WEIGHT 40
RELATIVE_SETWIDTH 50
SUPERSCRIPT_X 0
SUPERSCRIPT_Y 4
SUPERSCRIPT_SIZE 7
SUBSCRIPT_X 0
SUBSCRIPT_Y 0
SUBSCRIPT_SIZE 7
AVG_LOWERCASE_WIDTH 48
AVG_UPPERCASE_WIDTH 91
ENDPROPERTIES
CHARS 338
STARTCHAR CR
ENCODING 13
SWIDTH 600 0
DWIDTH 7 0
BBX 1 1 0 0
BITMAP
00
ENDCHAR
STARTCHAR space
ENCODING 32
SWIDTH 280 0
DWIDTH 3 0
BBX 1 1 0 0
BITMAP
00
ENDCHAR
STARTCHAR exclam
ENCODING 33
SWIDTH 196 0
DWIDTH 2 0
BBX 1 5 1 0
BITMAP
80
80
80
80
80
ENDCHAR
STARTCHAR quotedbl
ENCODING 34
SWIDTH 302 0
DWIDTH 4 0
BBX 3 2 0 3
BITMAP
A0
A0
ENDCHAR
STARTCHAR numbersign
ENCODING 35
SWIDTH 513 0
DWIDTH 6 0
BBX 5 5 1 0
BITMAP
B8
F8
F0
F0
A0
ENDCHAR
STARTCHAR dollar
ENCODING 36
SWIDTH 379 0
DWIDTH 5 0
BBX 4 6 0 -1
BITMAP
20
F0
C0
30
D0
60
ENDCHAR
STARTCHAR percent
ENCODING 37
SWIDTH 493 0
DWIDTH 6 0
BBX 6 5 0 0
BITMAP
78
E8
38
7C
58
ENDCHAR
STARTCHAR ampersand
ENCODING 38
SWIDTH 487 0
DWIDTH 6 0
BBX 5 5 1 0
BITMAP
60
D0
B0
E8
F0
ENDCHAR
STARTCHAR quotesingle
ENCODING 39
SWIDTH 146 0
DWIDTH 2 0
BBX 1 2 0 3
BITMAP
80
80
ENDCHAR
STARTCHAR parenleft
ENCODING 40
SWIDTH 210 0
DWIDTH 3 0
BBX 2 6 0 0
BITMAP
40
40
C0
C0
40
40
ENDCHAR
STARTCHAR parenright
ENCODING 41
SWIDTH 210 0
DWIDTH 3 0
BBX 2 6 0 0
BITMAP
80
40
40
40
40
C0
ENDCHAR
STARTCHAR asterisk
ENCODING 42
SWIDTH 358 0
DWIDTH 4 0
BBX 3 3 1 2
BITMAP
40
A0
C0
ENDCHAR
STARTCHAR plus
ENCODING 43
SWIDTH 394 0
DWIDTH 5 0
BBX 4 4 0 1
BITMAP
60
D0
D0
60
ENDCHAR
STARTCHAR comma
ENCODING 44
SWIDTH 216 0
DWIDTH 3 0
BBX 2 2 0 0
BITMAP
40
C0
ENDCHAR
STARTCHAR hyphen
ENCODING 45
SWIDTH 326 0
DWIDTH 4 0
BBX 2 2 1 2
BITMAP
C0
C0
ENDCHAR
STARTCHAR period
ENCODING 46
SWIDTH 176 0
DWIDTH 2 0
BBX 2 1 0 0
BITMAP
C0
ENDCHAR
STARTCHAR slash
ENCODING 47
SWIDTH 298 0
DWIDTH 4 0
BBX 3 5 0 0
BITMAP
20
60
40
40
C0
ENDCHAR
STARTCHAR zero
ENCODING 48
SWIDTH 306 0
DWIDTH 4 0
BBX 3 5 0 0
BITMAP
60
E0
E0
E0
60
ENDCHAR
STARTCHAR one
ENCODING 49
SWIDTH 306 0
DWIDTH 4 0
BBX 2 5 1 0
BITMAP
40
C0
40
40
40
ENDCHAR
STARTCHAR two
ENCODING 50
SWIDTH 299 0
DWIDTH 4 0
BBX 3 5 0 0
BITMAP
E0
20
60
C0
E0
ENDCHAR
STARTCHAR three
ENCODING 51
SWIDTH 324 0
DWIDTH 4 0
BBX 4 5 0 0
BITMAP
E0
10
20
D0
60
ENDCHAR
STARTCHAR four
ENCODING 52
SWIDTH 339 0
DWIDTH 4 0
BBX 4 5 0 0
BITMAP
60
40
C0
F0
F0
ENDCHAR
STARTCHAR five
ENCODING 53
SWIDTH 363 0
DWIDTH 4 0
BBX 3 5 1 0
BITMAP
E0
80
E0
60
C0
ENDCHAR
STARTCHAR six
ENCODING 54
SWIDTH 306 0
DWIDTH 4 0
BBX 3 5 0 0
BITMAP
60
C0
E0
E0
60
ENDCHAR
STARTCHAR seven
ENCODING 55
SWIDTH 298 0
DWIDTH 4 0
BBX 3 5 0 0
BITMAP
E0
E0
20
60
40
ENDCHAR
STARTCHAR eight
ENCODING 56
SWIDTH 306 0
DWIDTH 4 0
BBX 3 5 0 0
BITMAP
60
E0
A0
E0
60
ENDCHAR
STARTCHAR nine
ENCODING 57
SWIDTH 306 0
DWIDTH 4 0
BBX 3 5 0 0
BITMAP
60
E0
60
A0
60
ENDCHAR
STARTCHAR colon
ENCODING 58
SWIDTH 176 0
DWIDTH 2 0
BBX 2 3 0 0
BITMAP
C0
00
C0
ENDCHAR
STARTCHAR semicolon
ENCODING 59
SWIDTH 217 0
DWIDTH 3 0
BBX 2 3 0 0
BITMAP
40
00
C0
ENDCHAR
STARTCHAR less
ENCODING 60
SWIDTH 450 0
DWIDTH 5 0
BBX 5 5 0 0
BITMAP
08
38
F0
30
08
ENDCHAR
STARTCHAR equal
ENCODING 61
SWIDTH 344 0
DWIDTH 4 0
BBX 4 4 0 0
BITMAP
F0
F0
F0
F0
ENDCHAR
STARTCHAR greater
ENCODING 62
SWIDTH 450 0
DWIDTH 5 0
BBX 5 5 0 0
BITMAP
C0
E0
38
60
C0
ENDCHAR
STARTCHAR question
ENCODING 63
SWIDTH 346 0
DWIDTH 4 0
BBX 3 5 1 0
BITMAP
C0
60
C0
C0
C0
ENDCHAR
STARTCHAR at
ENCODING 64
SWIDTH 490 0
DWIDTH 6 0
BBX 6 5 0 0
BITMAP
78
B8
D4
A8
70
ENDCHAR
STARTCHAR A
ENCODING 65
SWIDTH 798 0
DWIDTH 10 0
BBX 9 10 0 0
BITMAP
0C00
1400
1600
1A00
2E00
5500
7D00
6F00
BE80
C180
ENDCHAR
STARTCHAR B
ENCODING 66
SWIDTH 784 0
DWIDTH 9 0
BBX 8 10 1 0
BITMAP
FE
FD
FF
C3
FE
FD
C3
C3
FF
FE
ENDCHAR
STARTCHAR C
ENCODING 67
SWIDTH 776 0
DWIDTH 9 0
BBX 9 10 0 0
BITMAP
1F00
2D80
5100
6000
C000
C000
6000
5100
6F80
1F00
ENDCHAR
STARTCHAR D
ENCODING 68
SWIDTH 806 0
DWIDTH 10 0
BBX 8 10 1 0
BITMAP
FC
FA
FF
C7
C3
C3
C3
C5
FA
FC
ENDCHAR
STARTCHAR E
ENCODING 69
SWIDTH 677 0
DWIDTH 8 0
BBX 7 10 1 0
BITMAP
FE
FE
FE
C0
FC
FC
C0
C0
FE
FE
ENDCHAR
STARTCHAR F
ENCODING 70
SWIDTH 677 0
DWIDTH 8 0
BBX 7 10 1 0
BITMAP
FE
FE
FE
C0
FC
FC
C0
C0
C0
C0
ENDCHAR
STARTCHAR G
ENCODING 71
SWIDTH 872 0
DWIDTH 10 0
BBX 10 10 0 0
BITMAP
1F00
2FC0
5180
6000
C7C0
C7C0
67C0
5140
6F80
1F00
ENDCHAR
STARTCHAR H
ENCODING 72
SWIDTH 781 0
DWIDTH 9 0
BBX 8 10 1 0
BITMAP
C3
C3
C3
C3
FB
FB
C3
C3
C3
C3
ENDCHAR
STARTCHAR I
ENCODING 73
SWIDTH 262 0
DWIDTH 3 0
BBX 2 10 1 0
BITMAP
C0
C0
C0
C0
C0
C0
C0
C0
C0
C0
ENDCHAR
STARTCHAR J
ENCODING 74
SWIDTH 674 0
DWIDTH 8 0
BBX 7 10 0 0
BITMAP
02
02
02
02
02
02
A2
E6
5A
3C
ENDCHAR
STARTCHAR K
ENCODING 75
SWIDTH 739 0
DWIDTH 9 0
BBX 8 10 1 0
BITMAP
C7
CE
DC
F8
F0
D0
F8
DC
CE
C7
ENDCHAR
STARTCHAR L
ENCODING 76
SWIDTH 604 0
DWIDTH 7 0
BBX 6 10 1 0
BITMAP
C0
C0
C0
C0
C0
C0
C0
C0
FC
FC
ENDCHAR
STARTCHAR M
ENCODING 77
SWIDTH 909 0
DWIDTH 11 0
BBX 9 10 1 0
BITMAP
C180
C380
E580
F780
FF80
D580
D980
C980
C180
C180
ENDCHAR
STARTCHAR N
ENCODING 78
SWIDTH 796 0
DWIDTH 10 0
BBX 8 10 1 0
BITMAP
C3
E3
D3
F3
FB
D7
DF
CF
C7
C3
ENDCHAR
STARTCHAR O
ENCODING 79
SWIDTH 894 0
DWIDTH 11 0
BBX 10 10 0 0
BITMAP
1F00
2E80
5140
60C0
C0C0
C0C0
60C0
5140
6F80
1F00
ENDCHAR
STARTCHAR P
ENCODING 80
SWIDTH 743 0
DWIDTH 9 0
BBX 8 10 1 0
BITMAP
FE
FD
FF
C3
FE
FC
C0
C0
C0
C0
ENDCHAR
STARTCHAR Q
ENCODING 81
SWIDTH 911 0
DWIDTH 11 0
BBX 11 10 0 0
BITMAP
1F00
2E80
5140
60C0
C0C0
C1C0
62A0
53C0
6FC0
1FE0
ENDCHAR
STARTCHAR R
ENCODING 82
SWIDTH 745 0
DWIDTH 9 0
BBX 8 10 1 0
BITMAP
FE
FD
FF
C3
FE
FC
CC
CC
CA
C7
ENDCHAR
STARTCHAR S
ENCODING 83
SWIDTH 660 0
DWIDTH 8 0
BBX 8 10 0 0
BITMAP
3C
7A
C4
E0
7C
3E
0F
47
FA
3C
ENDCHAR
STARTCHAR T
ENCODING 84
SWIDTH 641 0
DWIDTH 8 0
BBX 8 10 0 0
BITMAP
FF
FF
FF
18
18
18
18
18
18
18
ENDCHAR
STARTCHAR U
ENCODING 85
SWIDTH 702 0
DWIDTH 8 0
BBX 7 10 1 0
BITMAP
C6
C6
C6
C6
C6
C6
C6
CA
B4
78
ENDCHAR
STARTCHAR V
ENCODING 86
SWIDTH 758 0
DWIDTH 9 0
BBX 9 10 0 0
BITMAP
C180
A300
6300
6300
5600
3600
3600
2C00
1C00
1C00
ENDCHAR
STARTCHAR W
ENCODING 87
SWIDTH 972 0
DWIDTH 12 0
BBX 11 10 0 0
BITMAP
C660
6A60
6DA0
6A60
6BA0
3740
5B40
3740
2980
1980
ENDCHAR
STARTCHAR X
ENCODING 88
SWIDTH 712 0
DWIDTH 9 0
BBX 8 10 0 0
BITMAP
E3
75
36
3C
14
2C
3A
5E
76
E7
ENDCHAR
STARTCHAR Y
ENCODING 89
SWIDTH 769 0
DWIDTH 9 0
BBX 9 10 0 0
BITMAP
E380
5300
7700
3A00
1400
0800
0C00
0C00
0C00
0C00
ENDCHAR
STARTCHAR Z
ENCODING 90
SWIDTH 708 0
DWIDTH 9 0
BBX 8 10 0 0
BITMAP
7F
7E
7E
0A
1C
18
30
70
5F
FF
ENDCHAR
STARTCHAR bracketleft
ENCODING 91
SWIDTH 320 0
DWIDTH 4 0
BBX 2 6 1 -1
BITMAP
C0
C0
80
80
C0
C0
ENDCHAR
STARTCHAR backslash
ENCODING 92
SWIDTH 298 0
DWIDTH 4 0
BBX 3 5 0 0
BITMAP
C0
40
40
60
20
ENDCHAR
STARTCHAR bracketright
ENCODING 93
SWIDTH 320 0
DWIDTH 4 0
BBX 2 6 1 -1
BITMAP
C0
C0
40
40
C0
C0
ENDCHAR
STARTCHAR asciicircum
ENCODING 94
SWIDTH 309 0
DWIDTH 4 0
BBX 2 2 1 3
BITMAP
80
C0
ENDCHAR
STARTCHAR underscore
ENCODING 95
SWIDTH 472 0
DWIDTH 6 0
BBX 4 2 1 0
BITMAP
F0
F0
ENDCHAR
STARTCHAR grave
ENCODING 96
SWIDTH 195 0
DWIDTH 2 0
BBX 1 1 1 6
BITMAP
80
ENDCHAR
STARTCHAR a
ENCODING 97
SWIDTH 414 0
DWIDTH 5 0
BBX 5 5 0 0
BITMAP
60
70
70
68
F8
ENDCHAR
STARTCHAR b
ENCODING 98
SWIDTH 423 0
DWIDTH 5 0
BBX 5 5 0 0
BITMAP
F0
F8
F8
C8
F0
ENDCHAR
STARTCHAR c
ENCODING 99
SWIDTH 446 0
DWIDTH 5 0
BBX 5 5 0 0
BITMAP
78
40
C0
40
78
ENDCHAR
STARTCHAR d
ENCODING 100
SWIDTH 450 0
DWIDTH 5 0
BBX 5 5 0 0
BITMAP
F0
E8
D8
C8
F0
ENDCHAR
STARTCHAR e
ENCODING 101
SWIDTH 363 0
DWIDTH 4 0
BBX 4 5 0 0
BITMAP
F0
F0
F0
C0
F0
ENDCHAR
STARTCHAR f
ENCODING 102
SWIDTH 365 0
DWIDTH 4 0
BBX 4 5 0 0
BITMAP
F0
F0
F0
C0
C0
ENDCHAR
STARTCHAR g
ENCODING 103
SWIDTH 483 0
DWIDTH 6 0
BBX 5 5 0 0
BITMAP
78
48
D8
48
78
ENDCHAR
STARTCHAR h
ENCODING 104
SWIDTH 428 0
DWIDTH 5 0
BBX 5 5 0 0
BITMAP
D8
D8
F8
D8
D8
ENDCHAR
STARTCHAR i
ENCODING 105
SWIDTH 176 0
DWIDTH 2 0
BBX 2 5 0 0
BITMAP
C0
C0
C0
C0
C0
ENDCHAR
STARTCHAR j
ENCODING 106
SWIDTH 390 0
DWIDTH 5 0
BBX 4 5 0 0
BITMAP
10
10
10
D0
70
ENDCHAR
STARTCHAR k
ENCODING 107
SWIDTH 381 0
DWIDTH 5 0
BBX 4 5 0 0
BITMAP
F0
E0
E0
D0
F0
ENDCHAR
STARTCHAR l
ENCODING 108
SWIDTH 330 0
DWIDTH 4 0
BBX 4 5 0 0
BITMAP
C0
C0
C0
C0
F0
ENDCHAR
STARTCHAR m
ENCODING 109
SWIDTH 501 0
DWIDTH 6 0
BBX 6 5 0 0
BITMAP
CC
FC
FC
DC
CC
ENDCHAR
STARTCHAR n
ENCODING 110
SWIDTH 444 0
DWIDTH 5 0
BBX 5 5 0 0
BITMAP
C8
E8
D8
E8
D8
ENDCHAR
STARTCHAR o
ENCODING 111
SWIDTH 494 0
DWIDTH 6 0
BBX 6 5 0 0
BITMAP
78
48
CC
48
78
ENDCHAR
STARTCHAR p
ENCODING 112
SWIDTH 412 0
DWIDTH 5 0
BBX 5 5 0 0
BITMAP
F8
F8
F0
C0
C0
ENDCHAR
STARTCHAR q
ENCODING 113
SWIDTH 494 0
DWIDTH 6 0
BBX 6 5 0 0
BITMAP
70
48
CC
58
7C
ENDCHAR
STARTCHAR r
ENCODING 114
SWIDTH 412 0
DWIDTH 5 0
BBX 5 5 0 0
BITMAP
F8
F8
F0
F0
D8
ENDCHAR
STARTCHAR s
ENCODING 115
SWIDTH 379 0
DWIDTH 5 0
BBX 4 5 0 0
BITMAP
70
E0
D0
30
F0
ENDCHAR
STARTCHAR t
ENCODING 116
SWIDTH 349 0
DWIDTH 4 0
BBX 4 5 0 0
BITMAP
F0
F0
20
20
20
ENDCHAR
STARTCHAR u
ENCODING 117
SWIDTH 400 0
DWIDTH 5 0
BBX 4 5 0 0
BITMAP
D0
D0
D0
50
70
ENDCHAR
STARTCHAR v
ENCODING 118
SWIDTH 394 0
DWIDTH 5 0
BBX 5 5 0 0
BITMAP
D8
50
50
60
20
ENDCHAR
STARTCHAR w
ENCODING 119
SWIDTH 521 0
DWIDTH 6 0
BBX 6 5 0 0
BITMAP
9C
74
D8
54
68
ENDCHAR
STARTCHAR x
ENCODING 120
SWIDTH 369 0
DWIDTH 4 0
BBX 4 5 0 0
BITMAP
F0
60
60
60
F0
ENDCHAR
STARTCHAR y
ENCODING 121
SWIDTH 422 0
DWIDTH 5 0
BBX 5 5 0 0
BITMAP
D8
70
50
20
20
ENDCHAR
STARTCHAR z
ENCODING 122
SWIDTH 409 0
DWIDTH 5 0
BBX 4 5 0 0
BITMAP
F0
F0
20
60
F0
ENDCHAR
STARTCHAR braceleft
ENCODING 123
SWIDTH 443 0
DWIDTH 5 0
BBX 4 6 1 -1
BITMAP
50
50
A0
A0
50
50
ENDCHAR
STARTCHAR bar
ENCODING 124
SWIDTH 196 0
DWIDTH 2 0
BBX 1 6 1 0
BITMAP
80
80
80
80
80
80
ENDCHAR
STARTCHAR braceright
ENCODING 125
SWIDTH 506 0
DWIDTH 6 0
BBX 4 6 1 -1
BITMAP
A0
A0
30
30
A0
A0
ENDCHAR
STARTCHAR asciitilde
ENCODING 126
SWIDTH 450 0
DWIDTH 5 0
BBX 5 2 0 1
BITMAP
F8
F8
ENDCHAR
STARTCHAR uni00A0
ENCODING 160
SWIDTH 280 0
DWIDTH 3 0
BBX 1 1 0 0
BITMAP
00
ENDCHAR
STARTCHAR exclamdown
ENCODING 161
SWIDTH 196 0
DWIDTH 2 0
BBX 1 5 1 -1
BITMAP
80
80
80
80
80
ENDCHAR
STARTCHAR cent
ENCODING 162
SWIDTH 305 0
DWIDTH 4 0
BBX 4 6 0 -1
BITMAP
60
70
80
F0
60
60
ENDCHAR
STARTCHAR sterling
ENCODING 163
SWIDTH 408 0
DWIDTH 5 0
BBX 5 5 0 0
BITMAP
F0
E0
E0
40
F8
ENDCHAR
STARTCHAR currency
ENCODING 164
SWIDTH 401 0
DWIDTH 5 0
BBX 4 5 0 0
BITMAP
50
B0
70
B0
50
ENDCHAR
STARTCHAR yen
ENCODING 165
SWIDTH 423 0
DWIDTH 5 0
BBX 5 5 0 0
BITMAP
D8
70
50
70
70
ENDCHAR
STARTCHAR brokenbar
ENCODING 166
SWIDTH 196 0
DWIDTH 2 0
BBX 1 5 1 0
BITMAP
80
80
00
80
80
ENDCHAR
STARTCHAR section
ENCODING 167
SWIDTH 322 0
DWIDTH 4 0
BBX 4 6 0 -1
BITMAP
E0
E0
90
60
A0
60
ENDCHAR
STARTCHAR dieresis
ENCODING 168
SWIDTH 287 0
DWIDTH 3 0
BBX 2 1 1 6
BITMAP
C0
ENDCHAR
STARTCHAR copyright
ENCODING 169
SWIDTH 493 0
DWIDTH 6 0
BBX 6 6 0 0
BITMAP
30
48
B4
C4
78
30
ENDCHAR
STARTCHAR ordfeminine
ENCODING 170
SWIDTH 331 0
DWIDTH 4 0
BBX 2 3 1 2
BITMAP
C0
C0
C0
ENDCHAR
STARTCHAR guillemotleft
ENCODING 171
SWIDTH 298 0
DWIDTH 4 0
BBX 3 3 0 1
BITMAP
60
E0
60
ENDCHAR
STARTCHAR logicalnot
ENCODING 172
SWIDTH 420 0
DWIDTH 5 0
BBX 5 3 0 0
BITMAP
F8
F8
18
ENDCHAR
STARTCHAR uni00AD
ENCODING 173
SWIDTH 326 0
DWIDTH 4 0
BBX 2 2 1 2
BITMAP
C0
C0
ENDCHAR
STARTCHAR registered
ENCODING 174
SWIDTH 493 0
DWIDTH 6 0
BBX 6 6 0 0
BITMAP
30
48
B4
B4
48
30
ENDCHAR
STARTCHAR macron
ENCODING 175
SWIDTH 331 0
DWIDTH 4 0
BBX 2 1 1 6
BITMAP
C0
ENDCHAR
STARTCHAR degree
ENCODING 176
SWIDTH 298 0
DWIDTH 4 0
BBX 2 3 1 2
BITMAP
80
C0
80
ENDCHAR
STARTCHAR plusminus
ENCODING 177
SWIDTH 418 0
DWIDTH 5 0
BBX 5 5 0 0
BITMAP
20
70
70
00
F8
ENDCHAR
STARTCHAR uni00B2
ENCODING 178
SWIDTH 233 0
DWIDTH 3 0
BBX 1 3 1 2
BITMAP
80
80
80
ENDCHAR
STARTCHAR uni00B3
ENCODING 179
SWIDTH 228 0
DWIDTH 3 0
BBX 1 3 1 2
BITMAP
80
80
80
ENDCHAR
STARTCHAR acute
ENCODING 180
SWIDTH 195 0
DWIDTH 2 0
BBX 1 1 1 6
BITMAP
80
ENDCHAR
STARTCHAR uni00B5
ENCODING 181
SWIDTH 506 0
DWIDTH 6 0
BBX 5 6 1 -1
BITMAP
A0
A0
A0
A0
F8
80
ENDCHAR
STARTCHAR paragraph
ENCODING 182
SWIDTH 435 0
DWIDTH 5 0
BBX 5 5 0 0
BITMAP
F8
F8
58
18
18
ENDCHAR
STARTCHAR periodcentered
ENCODING 183
SWIDTH 176 0
DWIDTH 2 0
BBX 2 1 0 2
BITMAP
C0
ENDCHAR
STARTCHAR cedilla
ENCODING 184
SWIDTH 261 0
DWIDTH 3 0
BBX 2 2 1 -2
BITMAP
C0
80
ENDCHAR
STARTCHAR uni00B9
ENCODING 185
SWIDTH 218 0
DWIDTH 3 0
BBX 1 3 1 2
BITMAP
80
80
80
ENDCHAR
STARTCHAR ordmasculine
ENCODING 186
SWIDTH 335 0
DWIDTH 4 0
BBX 2 3 1 2
BITMAP
C0
C0
C0
ENDCHAR
STARTCHAR guillemotright
ENCODING 187
SWIDTH 298 0
DWIDTH 4 0
BBX 3 3 0 1
BITMAP
A0
E0
A0
ENDCHAR
STARTCHAR onequarter
ENCODING 188
SWIDTH 429 0
DWIDTH 5 0
BBX 5 5 0 0
BITMAP
80
50
60
30
58
ENDCHAR
STARTCHAR onehalf
ENCODING 189
SWIDTH 437 0
DWIDTH 5 0
BBX 5 5 0 0
BITMAP
D0
60
38
50
58
ENDCHAR
STARTCHAR threequarters
ENCODING 190
SWIDTH 409 0
DWIDTH 5 0
BBX 5 5 0 0
BITMAP
D0
50
E0
50
58
ENDCHAR
STARTCHAR questiondown
ENCODING 191
SWIDTH 346 0
DWIDTH 4 0
BBX 3 5 1 -1
BITMAP
C0
C0
80
E0
C0
ENDCHAR
STARTCHAR Agrave
ENCODING 192
SWIDTH 798 0
DWIDTH 10 0
BBX 9 14 0 0
BITMAP
3000
1800
0800
0400
0C00
1400
1600
1A00
2E00
5500
7D00
6F00
BE80
C180
ENDCHAR
STARTCHAR Aacute
ENCODING 193
SWIDTH 798 0
DWIDTH 10 0
BBX 9 14 0 0
BITMAP
0600
0400
0C00
0000
0C00
1400
1600
1A00
2E00
5500
7D00
6F00
BE80
C180
ENDCHAR
STARTCHAR Acircumflex
ENCODING 194
SWIDTH 798 0
DWIDTH 10 0
BBX 9 14 0 0
BITMAP
0800
1C00
3600
0000
0C00
1400
1600
1A00
2E00
5500
7D00
6F00
BE80
C180
ENDCHAR
STARTCHAR Atilde
ENCODING 195
SWIDTH 798 0
DWIDTH 10 0
BBX 9 12 0 0
BITMAP
1A00
2600
0C00
1400
1600
1A00
2E00
5500
7D00
6F00
BE80
C180
ENDCHAR
STARTCHAR Adieresis
ENCODING 196
SWIDTH 798 0
DWIDTH 10 0
BBX 9 13 0 0
BITMAP
1200
2D00
1200
0C00
1400
1600
1A00
2E00
5500
7D00
6F00
BE80
C180
ENDCHAR
STARTCHAR Aring
ENCODING 197
SWIDTH 798 0
DWIDTH 10 0
BBX 9 13 0 0
BITMAP
0C00
1400
0C00
0C00
1400
1600
1A00
2E00
5500
7D00
6F00
BE80
C180
ENDCHAR
STARTCHAR AE
ENCODING 198
SWIDTH 1078 0
DWIDTH 13 0
BBX 13 10 0 0
BITMAP
06F8
05F8
0EF8
1B00
17F0
3DF0
2B00
3F00
5DF8
E2F8
ENDCHAR
STARTCHAR Ccedilla
ENCODING 199
SWIDTH 776 0
DWIDTH 9 0
BBX 9 13 0 -3
BITMAP
1F00
2D80
5100
6000
C000
C000
6000
5100
6F80
1F00
0C00
0400
1C00
ENDCHAR
STARTCHAR Egrave
ENCODING 200
SWIDTH 677 0
DWIDTH 8 0
BBX 7 14 1 0
BITMAP
30
10
18
00
FE
FE
FE
C0
FC
FC
C0
C0
FE
FE
ENDCHAR
STARTCHAR Eacute
ENCODING 201
SWIDTH 677 0
DWIDTH 8 0
BBX 7 14 1 0
BITMAP
18
10
30
00
FE
FE
FE
C0
FC
FC
C0
C0
FE
FE
ENDCHAR
STARTCHAR Ecircumflex
ENCODING 202
SWIDTH 677 0
DWIDTH 8 0
BBX 7 14 1 0
BITMAP
10
38
6C
00
FE
FE
FE
C0
FC
FC
C0
C0
FE
FE
ENDCHAR
STARTCHAR Edieresis
ENCODING 203
SWIDTH 677 0
DWIDTH 8 0
BBX 7 13 1 0
BITMAP
64
5A
64
DA
FE
FE
C0
FC
FC
C0
C0
FE
FE
ENDCHAR
STARTCHAR Igrave
ENCODING 204
SWIDTH 262 0
DWIDTH 3 0
BBX 4 14 -1 0
BITMAP
C0
40
20
00
30
30
30
30
30
30
30
30
30
30
ENDCHAR
STARTCHAR Iacute
ENCODING 205
SWIDTH 262 0
DWIDTH 3 0
BBX 3 14 1 0
BITMAP
60
C0
C0
00
C0
C0
C0
C0
C0
C0
C0
C0
C0
C0
ENDCHAR
STARTCHAR Icircumflex
ENCODING 206
SWIDTH 262 0
DWIDTH 3 0
BBX 5 14 -1 0
BITMAP
60
50
D8
00
30
30
30
30
30
30
30
30
30
30
ENDCHAR
STARTCHAR Idieresis
ENCODING 207
SWIDTH 262 0
DWIDTH 3 0
BBX 5 13 -1 0
BITMAP
C8
D8
C8
30
30
30
30
30
30
30
30
30
30
ENDCHAR
STARTCHAR Eth
ENCODING 208
SWIDTH 856 0
DWIDTH 10 0
BBX 10 10 0 0
BITMAP
6F00
6C80
6F40
01C0
F9C0
F8C0
0140
6180
6F80
6E00
ENDCHAR
STARTCHAR Ntilde
ENCODING 209
SWIDTH 796 0
DWIDTH 10 0
BBX 8 12 1 0
BITMAP
34
48
C3
E3
D3
F3
FB
D7
DF
CF
C7
C3
ENDCHAR
STARTCHAR Ograve
ENCODING 210
SWIDTH 894 0
DWIDTH 11 0
BBX 10 14 0 0
BITMAP
1800
0800
0C00
0000
1F00
2E80
5140
60C0
C0C0
C0C0
60C0
5140
6F80
1F00
ENDCHAR
STARTCHAR Oacute
ENCODING 211
SWIDTH 894 0
DWIDTH 11 0
BBX 10 14 0 0
BITMAP
0200
0600
0400
0000
1F00
2E80
5140
60C0
C0C0
C0C0
60C0
5140
6F80
1F00
ENDCHAR
STARTCHAR Ocircumflex
ENCODING 212
SWIDTH 894 0
DWIDTH 11 0
BBX 10 14 0 0
BITMAP
0C00
1E00
1300
0000
1F00
2E80
5140
60C0
C0C0
C0C0
60C0
5140
6F80
1F00
ENDCHAR
STARTCHAR Otilde
ENCODING 213
SWIDTH 894 0
DWIDTH 11 0
BBX 10 12 0 0
BITMAP
0900
1600
1F00
2E80
5140
60C0
C0C0
C0C0
60C0
5140
6F80
1F00
ENDCHAR
STARTCHAR Odieresis
ENCODING 214
SWIDTH 894 0
DWIDTH 11 0
BBX 10 13 0 0
BITMAP
1300
2B00
1300
1F00
2E80
5140
60C0
C0C0
C0C0
60C0
5140
6F80
1F00
ENDCHAR
STARTCHAR multiply
ENCODING 215
SWIDTH 370 0
DWIDTH 4 0
BBX 4 3 0 1
BITMAP
F0
60
D0
ENDCHAR
STARTCHAR Oslash
ENCODING 216
SWIDTH 894 0
DWIDTH 11 0
BBX 10 10 0 0
BITMAP
1EC0
2D40
53C0
6340
CDC0
DAC0
68C0
7140
6E80
7F00
ENDCHAR
STARTCHAR Ugrave
ENCODING 217
SWIDTH 702 0
DWIDTH 8 0
BBX 7 14 1 0
BITMAP
40
20
30
00
C6
C6
C6
C6
C6
C6
C6
CA
B4
78
ENDCHAR
STARTCHAR Uacute
ENCODING 218
SWIDTH 702 0
DWIDTH 8 0
BBX 7 14 1 0
BITMAP
08
18
10
00
C6
C6
C6
C6
C6
C6
C6
CA
B4
78
ENDCHAR
STARTCHAR Ucircumflex
ENCODING 219
SWIDTH 702 0
DWIDTH 8 0
BBX 7 14 1 0
BITMAP
30
68
5C
80
C6
C6
C6
C6
C6
C6
C6
CA
B4
78
ENDCHAR
STARTCHAR Udieresis
ENCODING 220
SWIDTH 702 0
DWIDTH 8 0
BBX 7 13 1 0
BITMAP
4C
B4
48
C6
C6
C6
C6
C6
C6
C6
CA
B4
78
ENDCHAR
STARTCHAR Yacute
ENCODING 221
SWIDTH 769 0
DWIDTH 9 0
BBX 9 14 0 0
BITMAP
0600
0C00
0C00
0000
E380
5300
7700
3A00
1400
0800
0C00
0C00
0C00
0C00
ENDCHAR
STARTCHAR Thorn
ENCODING 222
SWIDTH 743 0
DWIDTH 9 0
BBX 8 10 1 0
BITMAP
C0
C0
FC
FE
C3
FF
FE
FC
C0
C0
ENDCHAR
STARTCHAR germandbls
ENCODING 223
SWIDTH 424 0
DWIDTH 5 0
BBX 5 5 0 0
BITMAP
70
F0
F0
C8
F0
ENDCHAR
STARTCHAR agrave
ENCODING 224
SWIDTH 414 0
DWIDTH 5 0
BBX 5 7 0 0
BITMAP
20
00
60
70
70
68
F8
ENDCHAR
STARTCHAR aacute
ENCODING 225
SWIDTH 414 0
DWIDTH 5 0
BBX 5 7 0 0
BITMAP
30
00
60
70
70
68
F8
ENDCHAR
STARTCHAR acircumflex
ENCODING 226
SWIDTH 414 0
DWIDTH 5 0
BBX 5 7 0 0
BITMAP
70
00
60
70
70
68
F8
ENDCHAR
STARTCHAR atilde
ENCODING 227
SWIDTH 414 0
DWIDTH 5 0
BBX 5 6 0 0
BITMAP
70
60
70
70
68
F8
ENDCHAR
STARTCHAR adieresis
ENCODING 228
SWIDTH 414 0
DWIDTH 5 0
BBX 5 7 0 0
BITMAP
50
00
60
70
70
68
F8
ENDCHAR
STARTCHAR aring
ENCODING 229
SWIDTH 414 0
DWIDTH 5 0
BBX 5 7 0 0
BITMAP
20
20
60
70
70
68
F8
ENDCHAR
STARTCHAR ae
ENCODING 230
SWIDTH 593 0
DWIDTH 7 0
BBX 7 5 0 0
BITMAP
3E
2E
6E
50
FE
ENDCHAR
STARTCHAR ccedilla
ENCODING 231
SWIDTH 446 0
DWIDTH 5 0
BBX 5 7 0 -2
BITMAP
78
40
C0
40
78
30
20
ENDCHAR
STARTCHAR egrave
ENCODING 232
SWIDTH 363 0
DWIDTH 4 0
BBX 4 7 0 0
BITMAP
20
00
F0
F0
F0
C0
F0
ENDCHAR
STARTCHAR eacute
ENCODING 233
SWIDTH 363 0
DWIDTH 4 0
BBX 4 7 0 0
BITMAP
30
00
F0
F0
F0
C0
F0
ENDCHAR
STARTCHAR ecircumflex
ENCODING 234
SWIDTH 363 0
DWIDTH 4 0
BBX 4 7 0 0
BITMAP
70
00
F0
F0
F0
C0
F0
ENDCHAR
STARTCHAR edieresis
ENCODING 235
SWIDTH 363 0
DWIDTH 4 0
BBX 4 7 0 0
BITMAP
50
00
F0
F0
F0
C0
F0
ENDCHAR
STARTCHAR igrave
ENCODING 236
SWIDTH 176 0
DWIDTH 2 0
BBX 2 7 0 0
BITMAP
80
00
C0
C0
C0
C0
C0
ENDCHAR
STARTCHAR iacute
ENCODING 237
SWIDTH 176 0
DWIDTH 2 0
BBX 2 7 0 0
BITMAP
40
00
C0
C0
C0
C0
C0
ENDCHAR
STARTCHAR icircumflex
ENCODING 238
SWIDTH 176 0
DWIDTH 2 0
BBX 2 7 0 0
BITMAP
C0
00
C0
C0
C0
C0
C0
ENDCHAR
STARTCHAR idieresis
ENCODING 239
SWIDTH 176 0
DWIDTH 2 0
BBX 2 7 0 0
BITMAP
C0
00
C0
C0
C0
C0
C0
ENDCHAR
STARTCHAR eth
ENCODING 240
SWIDTH 455 0
DWIDTH 5 0
BBX 5 5 0 0
BITMAP
70
78
C8
48
70
ENDCHAR
STARTCHAR ntilde
ENCODING 241
SWIDTH 444 0
DWIDTH 5 0
BBX 5 6 0 0
BITMAP
70
C8
E8
D8
E8
D8
ENDCHAR
STARTCHAR ograve
ENCODING 242
SWIDTH 494 0
DWIDTH 6 0
BBX 6 7 0 0
BITMAP
20
00
78
48
CC
48
78
ENDCHAR
STARTCHAR oacute
ENCODING 243
SWIDTH 494 0
DWIDTH 6 0
BBX 6 7 0 0
BITMAP
10
00
78
48
CC
48
78
ENDCHAR
STARTCHAR ocircumflex
ENCODING 244
SWIDTH 494 0
DWIDTH 6 0
BBX 6 7 0 0
BITMAP
30
00
78
48
CC
48
78
ENDCHAR
STARTCHAR otilde
ENCODING 245
SWIDTH 494 0
DWIDTH 6 0
BBX 6 6 0 0
BITMAP
70
78
48
CC
48
78
ENDCHAR
STARTCHAR odieresis
ENCODING 246
SWIDTH 494 0
DWIDTH 6 0
BBX 6 7 0 0
BITMAP
30
00
78
48
CC
48
78
ENDCHAR
STARTCHAR divide
ENCODING 247
SWIDTH 418 0
DWIDTH 5 0
BBX 5 5 0 0
BITMAP
20
20
F8
F8
20
ENDCHAR
STARTCHAR oslash
ENCODING 248
SWIDTH 494 0
DWIDTH 6 0
BBX 6 5 0 0
BITMAP
78
58
EC
A8
70
ENDCHAR
STARTCHAR ugrave
ENCODING 249
SWIDTH 400 0
DWIDTH 5 0
BBX 4 7 0 0
BITMAP
60
00
D0
D0
D0
50
70
ENDCHAR
STARTCHAR uacute
ENCODING 250
SWIDTH 400 0
DWIDTH 5 0
BBX 4 7 0 0
BITMAP
20
00
D0
D0
D0
50
70
ENDCHAR
STARTCHAR ucircumflex
ENCODING 251
SWIDTH 400 0
DWIDTH 5 0
BBX 4 7 0 0
BITMAP
60
00
D0
D0
D0
50
70
ENDCHAR
STARTCHAR udieresis
ENCODING 252
SWIDTH 400 0
DWIDTH 5 0
BBX 4 7 0 0
BITMAP
50
00
D0
D0
D0
50
70
ENDCHAR
STARTCHAR yacute
ENCODING 253
SWIDTH 422 0
DWIDTH 5 0
BBX 5 7 0 0
BITMAP
20
00
D8
70
50
20
20
ENDCHAR
STARTCHAR thorn
ENCODING 254
SWIDTH 412 0
DWIDTH 5 0
BBX 5 5 0 0
BITMAP
C0
F0
D8
F0
C0
ENDCHAR
STARTCHAR ydieresis
ENCODING 255
SWIDTH 422 0
DWIDTH 5 0
BBX 5 7 0 0
BITMAP
50
00
D8
70
50
20
20
ENDCHAR
STARTCHAR Edotaccent
ENCODING 278
SWIDTH 677 0
DWIDTH 8 0
BBX 7 12 1 0
BITMAP
10
00
FE
FE
FE
C0
FC
FC
C0
C0
FE
FE
ENDCHAR
STARTCHAR edotaccent
ENCODING 279
SWIDTH 363 0
DWIDTH 4 0
BBX 4 7 0 0
BITMAP
20
00
F0
F0
F0
C0
F0
ENDCHAR
STARTCHAR dotlessi
ENCODING 305
SWIDTH 176 0
DWIDTH 2 0
BBX 2 5 0 0
BITMAP
C0
C0
C0
C0
C0
ENDCHAR
STARTCHAR OE
ENCODING 338
SWIDTH 1221 0
DWIDTH 15 0
BBX 14 10 0 0
BITMAP
1FFC
6F7C
7F7C
E180
C17C
C17C
4180
6180
3F7C
1F7C
ENDCHAR
STARTCHAR oe
ENCODING 339
SWIDTH 637 0
DWIDTH 8 0
BBX 7 5 0 0
BITMAP
7E
B6
D6
58
76
ENDCHAR
STARTCHAR Wcircumflex
ENCODING 372
SWIDTH 972 0
DWIDTH 12 0
BBX 11 14 0 0
BITMAP
0400
0E00
1B00
0000
C660
6A60
6DA0
6A60
6BA0
3740
5B40
3740
2980
1980
ENDCHAR
STARTCHAR wcircumflex
ENCODING 373
SWIDTH 521 0
DWIDTH 6 0
BBX 6 7 0 0
BITMAP
30
00
9C
74
D8
54
68
ENDCHAR
STARTCHAR Ycircumflex
ENCODING 374
SWIDTH 769 0
DWIDTH 9 0
BBX 9 14 0 0
BITMAP
1800
1400
3600
0000
E380
5300
7700
3A00
1400
0800
0C00
0C00
0C00
0C00
ENDCHAR
STARTCHAR ycircumflex
ENCODING 375
SWIDTH 422 0
DWIDTH 5 0
BBX 5 7 0 0
BITMAP
70
00
D8
70
50
20
20
ENDCHAR
STARTCHAR Ydieresis
ENCODING 376
SWIDTH 769 0
DWIDTH 9 0
BBX 9 13 0 0
BITMAP
3200
3500
3200
E380
5300
7700
3A00
1400
0800
0C00
0C00
0C00
0C00
ENDCHAR
STARTCHAR circumflex
ENCODING 710
SWIDTH 298 0
DWIDTH 4 0
BBX 2 1 1 6
BITMAP
C0
ENDCHAR
STARTCHAR dotaccent
ENCODING 729
SWIDTH 212 0
DWIDTH 3 0
BBX 1 1 1 6
BITMAP
80
ENDCHAR
STARTCHAR ring
ENCODING 730
SWIDTH 212 0
DWIDTH 3 0
BBX 1 2 1 5
BITMAP
80
80
ENDCHAR
STARTCHAR tilde
ENCODING 732
SWIDTH 329 0
DWIDTH 4 0
BBX 2 1 1 5
BITMAP
C0
ENDCHAR
STARTCHAR gravecomb
ENCODING 768
SWIDTH 0 0
DWIDTH 0 0
BBX 1 1 1 6
BITMAP
80
ENDCHAR
STARTCHAR acutecomb
ENCODING 769
SWIDTH 0 0
DWIDTH 0 0
BBX 1 1 1 6
BITMAP
80
ENDCHAR
STARTCHAR uni0302
ENCODING 770
SWIDTH 0 0
DWIDTH 0 0
BBX 2 1 1 6
BITMAP
C0
ENDCHAR
STARTCHAR tildecomb
ENCODING 771
SWIDTH 0 0
DWIDTH 0 0
BBX 2 1 1 5
BITMAP
C0
ENDCHAR
STARTCHAR uni0307
ENCODING 775
SWIDTH 0 0
DWIDTH 0 0
BBX 1 1 1 6
BITMAP
80
ENDCHAR
STARTCHAR uni0308
ENCODING 776
SWIDTH 0 0
DWIDTH 0 0
BBX 2 1 1 6
BITMAP
C0
ENDCHAR
STARTCHAR uni030A
ENCODING 778
SWIDTH 0 0
DWIDTH 0 0
BBX 1 2 1 5
BITMAP
80
80
ENDCHAR
STARTCHAR uni0327
ENCODING 807
SWIDTH 0 0
DWIDTH 0 0
BBX 2 2 1 -2
BITMAP
C0
80
ENDCHAR
STARTCHAR Wgrave
ENCODING 7808
SWIDTH 972 0
DWIDTH 12 0
BBX 11 14 0 0
BITMAP
0C00
0400
0600
0000
C660
6A60
6DA0
6A60
6BA0
3740
5B40
3740
2980
1980
ENDCHAR
STARTCHAR wgrave
ENCODING 7809
SWIDTH 521 0
DWIDTH 6 0
BBX 6 7 0 0
BITMAP
10
00
9C
74
D8
54
68
ENDCHAR
STARTCHAR Wacute
ENCODING 7810
SWIDTH 972 0
DWIDTH 12 0
BBX 11 14 0 0
BITMAP
0200
0600
0C00
0000
C660
6A60
6DA0
6A60
6BA0
3740
5B40
3740
2980
1980
ENDCHAR
STARTCHAR wacute
ENCODING 7811
SWIDTH 521 0
DWIDTH 6 0
BBX 6 7 0 0
BITMAP
10
00
9C
74
D8
54
68
ENDCHAR
STARTCHAR Wdieresis
ENCODING 7812
SWIDTH 972 0
DWIDTH 12 0
BBX 11 13 0 0
BITMAP
0900
1680
0900
C660
6A60
6DA0
6A60
6BA0
3740
5B40
3740
2980
1980
ENDCHAR
STARTCHAR wdieresis
ENCODING 7813
SWIDTH 521 0
DWIDTH 6 0
BBX 6 7 0 0
BITMAP
30
00
9C
74
D8
54
68
ENDCHAR
STARTCHAR uni1E9E
ENCODING 7838
SWIDTH 784 0
DWIDTH 9 0
BBX 8 10 1 0
BITMAP
FE
FE
FE
CA
CE
DF
C3
C3
DD
DE
ENDCHAR
STARTCHAR Ygrave
ENCODING 7922
SWIDTH 769 0
DWIDTH 9 0
BBX 9 14 0 0
BITMAP
1800
1800
0C00
0000
E380
5300
7700
3A00
1400
0800
0C00
0C00
0C00
0C00
ENDCHAR
STARTCHAR ygrave
ENCODING 7923
SWIDTH 422 0
DWIDTH 5 0
BBX 5 7 0 0
BITMAP
20
00
D8
70
50
20
20
ENDCHAR
STARTCHAR endash
ENCODING 8211
SWIDTH 507 0
DWIDTH 6 0
BBX 4 2 1 2
BITMAP
F0
F0
ENDCHAR
STARTCHAR emdash
ENCODING 8212
SWIDTH 552 0
DWIDTH 7 0
BBX 5 2 1 2
BITMAP
F8
F8
ENDCHAR
STARTCHAR quoteleft
ENCODING 8216
SWIDTH 146 0
DWIDTH 2 0
BBX 1 2 0 3
BITMAP
80
80
ENDCHAR
STARTCHAR quoteright
ENCODING 8217
SWIDTH 146 0
DWIDTH 2 0
BBX 1 2 0 3
BITMAP
80
80
ENDCHAR
STARTCHAR quotesinglbase
ENCODING 8218
SWIDTH 146 0
DWIDTH 2 0
BBX 1 2 0 -2
BITMAP
80
80
ENDCHAR
STARTCHAR quotedblleft
ENCODING 8220
SWIDTH 297 0
DWIDTH 4 0
BBX 3 2 0 3
BITMAP
A0
A0
ENDCHAR
STARTCHAR quotedblright
ENCODING 8221
SWIDTH 297 0
DWIDTH 4 0
BBX 3 2 0 3
BITMAP
A0
60
ENDCHAR
STARTCHAR quotedblbase
ENCODING 8222
SWIDTH 297 0
DWIDTH 4 0
BBX 3 2 0 -2
BITMAP
A0
60
ENDCHAR
STARTCHAR bullet
ENCODING 8226
SWIDTH 302 0
DWIDTH 4 0
BBX 2 3 1 1
BITMAP
C0
C0
80
ENDCHAR
STARTCHAR ellipsis
ENCODING 8230
SWIDTH 528 0
DWIDTH 6 0
BBX 6 1 0 0
BITMAP
D4
ENDCHAR
STARTCHAR guilsinglleft
ENCODING 8249
SWIDTH 178 0
DWIDTH 2 0
BBX 2 3 0 1
BITMAP
40
C0
40
ENDCHAR
STARTCHAR guilsinglright
ENCODING 8250
SWIDTH 178 0
DWIDTH 2 0
BBX 2 3 0 1
BITMAP
80
C0
80
ENDCHAR
STARTCHAR fraction
ENCODING 8260
SWIDTH 362 0
DWIDTH 4 0
BBX 4 5 0 0
BITMAP
10
20
20
40
C0
ENDCHAR
STARTCHAR uni2074
ENCODING 8308
SWIDTH 204 0
DWIDTH 2 0
BBX 2 3 0 2
BITMAP
40
80
C0
ENDCHAR
STARTCHAR Euro
ENCODING 8364
SWIDTH 462 0
DWIDTH 6 0
BBX 5 5 0 0
BITMAP
38
C0
E0
C8
78
ENDCHAR
STARTCHAR trademark
ENCODING 8482
SWIDTH 461 0
DWIDTH 6 0
BBX 5 3 0 3
BITMAP
E8
78
68
ENDCHAR
STARTCHAR minus
ENCODING 8722
SWIDTH 420 0
DWIDTH 5 0
BBX 5 2 0 2
BITMAP
F8
F8
ENDCHAR
STARTCHAR uni2215
ENCODING 8725
SWIDTH 278 0
DWIDTH 3 0
BBX 3 5 0 0
BITMAP
20
60
40
40
C0
ENDCHAR
STARTCHAR .notdef
ENCODING -1
SWIDTH 500 0
DWIDTH 6 0
BBX 4 14 1 -3
BITMAP
F0
90
90
90
90
90
90
90
90
90
90
90
90
F0
ENDCHAR
STARTCHAR NULL
ENCODING -1
SWIDTH 600 0
DWIDTH 7 0
BBX 1 1 0 0
BITMAP
00
ENDCHAR
STARTCHAR acutecomb.case
ENCODING -1
SWIDTH 0 0
DWIDTH 0 0
BBX 2 3 1 11
BITMAP
40
C0
80
ENDCHAR
STARTCHAR ampersand.case
ENCODING -1
SWIDTH 797 0
DWIDTH 10 0
BBX 9 10 0 0
BITMAP
1C00
2A00
3600
5E00
3C00
5900
F780
CE80
7700
3B80
ENDCHAR
STARTCHAR asciicircum.case
ENCODING -1
SWIDTH 540 0
DWIDTH 6 0
BBX 6 5 0 5
BITMAP
10
30
78
48
CC
ENDCHAR
STARTCHAR asciitilde.case
ENCODING -1
SWIDTH 640 0
DWIDTH 8 0
BBX 6 3 1 4
BITMAP
C4
F8
9C
ENDCHAR
STARTCHAR asterisk.case
ENCODING -1
SWIDTH 482 0
DWIDTH 6 0
BBX 4 4 1 6
BITMAP
40
90
00
F0
ENDCHAR
STARTCHAR at.case
ENCODING -1
SWIDTH 915 0
DWIDTH 11 0
BBX 10 10 1 0
BITMAP
3E00
4100
9A80
BE80
A2C0
A2C0
BD40
9B80
4200
3E00
ENDCHAR
STARTCHAR backslash.case
ENCODING -1
SWIDTH 504 0
DWIDTH 6 0
BBX 6 11 0 -1
BITMAP
C0
60
60
60
30
30
30
28
18
18
14
ENDCHAR
STARTCHAR bar.case
ENCODING -1
SWIDTH 262 0
DWIDTH 3 0
BBX 2 11 1 -1
BITMAP
C0
C0
C0
C0
C0
C0
C0
C0
C0
C0
C0
ENDCHAR
STARTCHAR braceleft.case
ENCODING -1
SWIDTH 504 0
DWIDTH 6 0
BBX 4 12 1 -1
BITMAP
50
60
50
60
60
A0
A0
60
60
60
50
50
ENDCHAR
STARTCHAR braceright.case
ENCODING -1
SWIDTH 506 0
DWIDTH 6 0
BBX 4 12 1 -1
BITMAP
A0
A0
60
60
60
50
50
60
60
A0
60
A0
ENDCHAR
STARTCHAR bracketleft.case
ENCODING -1
SWIDTH 453 0
DWIDTH 5 0
BBX 4 12 1 -1
BITMAP
F0
C0
F0
C0
C0
C0
C0
C0
C0
C0
F0
F0
ENDCHAR
STARTCHAR bracketright.case
ENCODING -1
SWIDTH 453 0
DWIDTH 5 0
BBX 4 12 1 -1
BITMAP
B0
B0
30
30
30
30
30
30
30
B0
30
B0
ENDCHAR
STARTCHAR brokenbar.case
ENCODING -1
SWIDTH 262 0
DWIDTH 3 0
BBX 2 11 1 0
BITMAP
C0
C0
C0
C0
C0
00
C0
C0
C0
C0
C0
ENDCHAR
STARTCHAR bullet.case
ENCODING -1
SWIDTH 503 0
DWIDTH 6 0
BBX 4 6 1 2
BITMAP
60
F0
90
90
F0
60
ENDCHAR
STARTCHAR uni0327.case
ENCODING -1
SWIDTH 0 0
DWIDTH 0 0
BBX 2 4 1 -3
BITMAP
40
C0
40
C0
ENDCHAR
STARTCHAR cent.case
ENCODING -1
SWIDTH 577 0
DWIDTH 7 0
BBX 5 11 1 -1
BITMAP
30
30
38
F8
C0
C0
C0
B8
70
30
30
ENDCHAR
STARTCHAR uni0302.case
ENCODING -1
SWIDTH 0 0
DWIDTH 0 0
BBX 5 3 1 11
BITMAP
60
F0
98
ENDCHAR
STARTCHAR colon.case
ENCODING -1
SWIDTH 262 0
DWIDTH 3 0
BBX 2 7 1 0
BITMAP
C0
C0
00
00
00
C0
C0
ENDCHAR
STARTCHAR comma.case
ENCODING -1
SWIDTH 338 0
DWIDTH 4 0
BBX 2 3 1 -1
BITMAP
C0
C0
C0
ENDCHAR
STARTCHAR copyright.case
ENCODING -1
SWIDTH 895 0
DWIDTH 11 0
BBX 10 10 0 0
BITMAP
1F00
6080
4440
5F40
D040
D040
5F40
4E40
6080
1F00
ENDCHAR
STARTCHAR currency.case
ENCODING -1
SWIDTH 676 0
DWIDTH 8 0
BBX 8 7 0 1
BITMAP
66
DD
3E
24
7E
DF
62
ENDCHAR
STARTCHAR degree.case
ENCODING -1
SWIDTH 413 0
DWIDTH 5 0
BBX 5 5 0 5
BITMAP
70
D0
D8
A8
70
ENDCHAR
STARTCHAR uni0308.case
ENCODING -1
SWIDTH 0 0
DWIDTH 0 0
BBX 5 3 1 10
BITMAP
98
D8
98
ENDCHAR
STARTCHAR divide.case
ENCODING -1
SWIDTH 618 0
DWIDTH 7 0
BBX 6 7 1 1
BITMAP
20
30
FC
FC
20
30
20
ENDCHAR
STARTCHAR uni2215.case
ENCODING -1
SWIDTH 483 0
DWIDTH 6 0
BBX 5 10 0 0
BITMAP
18
18
18
28
30
30
50
60
60
C0
ENDCHAR
STARTCHAR dollar.case
ENCODING -1
SWIDTH 660 0
DWIDTH 8 0
BBX 8 11 0 -1
BITMAP
18
3C
DE
FC
F0
7E
0E
3B
DE
7E
18
ENDCHAR
STARTCHAR eight.case
ENCODING -1
SWIDTH 561 0
DWIDTH 7 0
BBX 6 10 0 0
BITMAP
38
74
CC
EC
BC
FC
DC
CC
74
38
ENDCHAR
STARTCHAR ellipsis.case
ENCODING -1
SWIDTH 766 0
DWIDTH 9 0
BBX 8 2 1 0
BITMAP
DB
DB
ENDCHAR
STARTCHAR emdash.case
ENCODING -1
SWIDTH 790 0
DWIDTH 9 0
BBX 8 2 1 4
BITMAP
FF
FF
ENDCHAR
STARTCHAR endash.case
ENCODING -1
SWIDTH 721 0
DWIDTH 9 0
BBX 7 2 1 4
BITMAP
FE
FE
ENDCHAR
STARTCHAR equal.case
ENCODING -1
SWIDTH 618 0
DWIDTH 7 0
BBX 6 6 1 2
BITMAP
FC
FC
FC
FC
FC
FC
ENDCHAR
STARTCHAR Euro.case
ENCODING -1
SWIDTH 767 0
DWIDTH 9 0
BBX 9 10 0 0
BITMAP
0F00
3F80
3100
6000
FC00
FC00
6000
7100
3F80
0F00
ENDCHAR
STARTCHAR exclam.case
ENCODING -1
SWIDTH 262 0
DWIDTH 3 0
BBX 2 10 1 0
BITMAP
C0
C0
C0
C0
C0
C0
C0
00
C0
C0
ENDCHAR
STARTCHAR exclamdown.case
ENCODING -1
SWIDTH 262 0
DWIDTH 3 0
BBX 2 10 1 -3
BITMAP
C0
C0
00
C0
C0
C0
C0
C0
C0
C0
ENDCHAR
STARTCHAR five.case
ENCODING -1
SWIDTH 558 0
DWIDTH 7 0
BBX 6 10 0 0
BITMAP
7C
7C
60
60
78
7C
0C
CC
74
78
ENDCHAR
STARTCHAR four.case
ENCODING -1
SWIDTH 585 0
DWIDTH 7 0
BBX 7 10 0 0
BITMAP
18
18
28
30
50
AC
EE
EE
EE
0C
ENDCHAR
STARTCHAR uni2074.case
ENCODING -1
SWIDTH 312 0
DWIDTH 4 0
BBX 3 4 0 6
BITMAP
60
40
E0
E0
ENDCHAR
STARTCHAR fraction.case
ENCODING -1
SWIDTH 655 0
DWIDTH 8 0
BBX 6 10 1 0
BITMAP
0C
08
18
10
10
20
60
40
C0
80
ENDCHAR
STARTCHAR gravecomb.case
ENCODING -1
SWIDTH 0 0
DWIDTH 0 0
BBX 2 3 1 11
BITMAP
80
C0
C0
ENDCHAR
STARTCHAR greater.case
ENCODING -1
SWIDTH 677 0
DWIDTH 8 0
BBX 8 8 0 1
BITMAP
C0
F0
78
17
2C
F8
70
80
ENDCHAR
STARTCHAR guillemotleft.case
ENCODING -1
SWIDTH 666 0
DWIDTH 8 0
BBX 6 6 1 2
BITMAP
24
EC
BC
D4
DC
44
ENDCHAR
STARTCHAR guillemotright.case
ENCODING -1
SWIDTH 666 0
DWIDTH 8 0
BBX 6 6 1 2
BITMAP
90
DC
F4
AC
EC
88
ENDCHAR
STARTCHAR guilsinglleft.case
ENCODING -1
SWIDTH 338 0
DWIDTH 4 0
BBX 2 6 1 2
BITMAP
40
C0
C0
C0
C0
40
ENDCHAR
STARTCHAR guilsinglright.case
ENCODING -1
SWIDTH 338 0
DWIDTH 4 0
BBX 2 6 1 2
BITMAP
80
C0
C0
C0
C0
80
ENDCHAR
STARTCHAR hyphen.case
ENCODING -1
SWIDTH 445 0
DWIDTH 5 0
BBX 4 2 1 4
BITMAP
F0
F0
ENDCHAR
STARTCHAR less.case
ENCODING -1
SWIDTH 677 0
DWIDTH 8 0
BBX 8 8 0 1
BITMAP
03
05
1E
34
E8
1E
0F
03
ENDCHAR
STARTCHAR logicalnot.case
ENCODING -1
SWIDTH 618 0
DWIDTH 7 0
BBX 6 5 1 1
BITMAP
FC
FC
00
0C
0C
ENDCHAR
STARTCHAR uni00B5.case
ENCODING -1
SWIDTH 792 0
DWIDTH 10 0
BBX 8 12 1 -2
BITMAP
C6
C6
C6
C6
C6
C6
C6
CA
F5
FB
C0
C0
ENDCHAR
STARTCHAR minus.case
ENCODING -1
SWIDTH 618 0
DWIDTH 7 0
BBX 6 2 1 4
BITMAP
FC
FC
ENDCHAR
STARTCHAR multiply.case
ENCODING -1
SWIDTH 580 0
DWIDTH 7 0
BBX 6 6 1 2
BITMAP
88
D4
78
70
B8
C8
ENDCHAR
STARTCHAR nine.case
ENCODING -1
SWIDTH 558 0
DWIDTH 7 0
BBX 6 10 0 0
BITMAP
78
74
CC
CC
7C
3C
0C
CC
74
38
ENDCHAR
STARTCHAR numbersign.case
ENCODING -1
SWIDTH 776 0
DWIDTH 9 0
BBX 8 10 1 0
BITMAP
36
66
DF
AF
DF
FE
FE
F6
CC
BC
ENDCHAR
STARTCHAR one.case
ENCODING -1
SWIDTH 378 0
DWIDTH 5 0
BBX 4 10 0 0
BITMAP
F0
F0
F0
30
30
30
30
30
30
30
ENDCHAR
STARTCHAR onehalf.case
ENCODING -1
SWIDTH 735 0
DWIDTH 9 0
BBX 7 10 1 0
BITMAP
C6
4C
48
48
10
3E
22
66
4E
CE
ENDCHAR
STARTCHAR onequarter.case
ENCODING -1
SWIDTH 722 0
DWIDTH 9 0
BBX 7 10 1 0
BITMAP
C6
4C
48
48
10
36
24
6A
4A
C0
ENDCHAR
STARTCHAR uni00B9.case
ENCODING -1
SWIDTH 306 0
DWIDTH 4 0
BBX 2 4 1 6
BITMAP
C0
40
40
40
ENDCHAR
STARTCHAR ordfeminine.case
ENCODING -1
SWIDTH 456 0
DWIDTH 5 0
BBX 4 4 1 6
BITMAP
60
60
D0
F0
ENDCHAR
STARTCHAR ordmasculine.case
ENCODING -1
SWIDTH 489 0
DWIDTH 6 0
BBX 4 5 1 5
BITMAP
E0
90
90
F0
60
ENDCHAR
STARTCHAR paragraph.case
ENCODING -1
SWIDTH 893 0
DWIDTH 11 0
BBX 10 10 0 0
BITMAP
7FC0
BFC0
FFC0
C540
7D40
3D40
0540
0540
0540
0540
ENDCHAR
STARTCHAR parenleft.case
ENCODING -1
SWIDTH 290 0
DWIDTH 3 0
BBX 4 11 0 -1
BITMAP
30
60
A0
60
C0
C0
C0
60
A0
60
30
ENDCHAR
STARTCHAR parenright.case
ENCODING -1
SWIDTH 290 0
DWIDTH 3 0
BBX 3 11 0 0
BITMAP
C0
C0
A0
60
60
60
60
60
A0
C0
C0
ENDCHAR
STARTCHAR percent.case
ENCODING -1
SWIDTH 827 0
DWIDTH 10 0
BBX 10 10 0 0
BITMAP
71C0
DB80
D700
2700
0A00
1780
3D40
36C0
7680
E380
ENDCHAR
STARTCHAR period.case
ENCODING -1
SWIDTH 262 0
DWIDTH 3 0
BBX 2 2 1 0
BITMAP
C0
C0
ENDCHAR
STARTCHAR periodcentered.case
ENCODING -1
SWIDTH 262 0
DWIDTH 3 0
BBX 2 2 1 4
BITMAP
C0
C0
ENDCHAR
STARTCHAR plus.case
ENCODING -1
SWIDTH 616 0
DWIDTH 7 0
BBX 6 6 1 2
BITMAP
50
50
DC
DC
50
50
ENDCHAR
STARTCHAR plusminus.case
ENCODING -1
SWIDTH 618 0
DWIDTH 7 0
BBX 6 9 1 0
BITMAP
50
50
DC
DC
50
50
00
FC
FC
ENDCHAR
STARTCHAR question.case
ENCODING -1
SWIDTH 598 0
DWIDTH 7 0
BBX 6 10 1 0
BITMAP
70
F8
CC
1C
28
70
30
00
30
30
ENDCHAR
STARTCHAR questiondown.case
ENCODING -1
SWIDTH 598 0
DWIDTH 7 0
BBX 6 10 1 -3
BITMAP
30
30
00
30
60
A0
C0
CC
B4
78
ENDCHAR
STARTCHAR quotedbl.case
ENCODING -1
SWIDTH 464 0
DWIDTH 6 0
BBX 5 3 0 7
BITMAP
B8
B8
B8
ENDCHAR
STARTCHAR quotedblbase.case
ENCODING -1
SWIDTH 464 0
DWIDTH 6 0
BBX 5 3 0 -1
BITMAP
B8
B8
48
ENDCHAR
STARTCHAR quotedblleft.case
ENCODING -1
SWIDTH 464 0
DWIDTH 6 0
BBX 5 3 0 6
BITMAP
90
B8
B8
ENDCHAR
STARTCHAR quotedblright.case
ENCODING -1
SWIDTH 464 0
DWIDTH 6 0
BBX 5 3 0 7
BITMAP
B8
B8
48
ENDCHAR
STARTCHAR quoteleft.case
ENCODING -1
SWIDTH 212 0
DWIDTH 3 0
BBX 2 3 0 6
BITMAP
80
C0
C0
ENDCHAR
STARTCHAR quoteright.case
ENCODING -1
SWIDTH 212 0
DWIDTH 3 0
BBX 2 3 0 7
BITMAP
C0
C0
40
ENDCHAR
STARTCHAR quotesinglbase.case
ENCODING -1
SWIDTH 212 0
DWIDTH 3 0
BBX 2 3 0 -1
BITMAP
C0
C0
40
ENDCHAR
STARTCHAR quotesingle.case
ENCODING -1
SWIDTH 212 0
DWIDTH 3 0
BBX 2 3 0 7
BITMAP
C0
C0
C0
ENDCHAR
STARTCHAR registered.case
ENCODING -1
SWIDTH 895 0
DWIDTH 11 0
BBX 10 10 0 0
BITMAP
1F00
6080
5E40
5F40
DE40
DA40
5A40
5B40
6080
1F00
ENDCHAR
STARTCHAR uni030A.case
ENCODING -1
SWIDTH 0 0
DWIDTH 0 0
BBX 2 3 1 10
BITMAP
C0
C0
C0
ENDCHAR
STARTCHAR section.case
ENCODING -1
SWIDTH 645 0
DWIDTH 8 0
BBX 7 13 0 -2
BITMAP
18
66
5E
50
6C
5E
F6
AE
5C
3A
E6
7A
3C
ENDCHAR
STARTCHAR semicolon.case
ENCODING -1
SWIDTH 338 0
DWIDTH 4 0
BBX 2 8 1 -1
BITMAP
C0
C0
00
00
00
C0
C0
C0
ENDCHAR
STARTCHAR seven.case
ENCODING -1
SWIDTH 505 0
DWIDTH 6 0
BBX 6 10 0 0
BITMAP
FC
FC
FC
18
18
28
30
30
30
70
ENDCHAR
STARTCHAR six.case
ENCODING -1
SWIDTH 558 0
DWIDTH 7 0
BBX 6 10 0 0
BITMAP
38
74
CC
C0
D8
DC
CC
CC
74
38
ENDCHAR
STARTCHAR slash.case
ENCODING -1
SWIDTH 504 0
DWIDTH 6 0
BBX 6 11 0 -1
BITMAP
14
18
18
28
30
30
30
60
60
60
C0
ENDCHAR
STARTCHAR uni00AD.case
ENCODING -1
SWIDTH 445 0
DWIDTH 5 0
BBX 4 2 1 4
BITMAP
F0
F0
ENDCHAR
STARTCHAR sterling.case
ENCODING -1
SWIDTH 618 0
DWIDTH 7 0
BBX 7 10 0 0
BITMAP
3C
5A
64
60
F8
F8
E0
00
FE
FE
ENDCHAR
STARTCHAR three.case
ENCODING -1
SWIDTH 558 0
DWIDTH 7 0
BBX 6 10 0 0
BITMAP
38
7C
CC
0C
1C
1C
0C
CC
74
38
ENDCHAR
STARTCHAR threequarters.case
ENCODING -1
SWIDTH 722 0
DWIDTH 9 0
BBX 7 10 1 0
BITMAP
C6
4C
48
A8
D0
36
24
6A
4A
C0
ENDCHAR
STARTCHAR uni00B3.case
ENCODING -1
SWIDTH 332 0
DWIDTH 4 0
BBX 2 5 1 5
BITMAP
C0
40
40
C0
C0
ENDCHAR
STARTCHAR tildecomb.case
ENCODING -1
SWIDTH 0 0
DWIDTH 0 0
BBX 4 2 1 10
BITMAP
D0
B0
ENDCHAR
STARTCHAR trademark.case
ENCODING -1
SWIDTH 850 0
DWIDTH 10 0
BBX 10 5 0 5
BITMAP
F4C0
F7C0
2740
2540
2440
ENDCHAR
STARTCHAR two.case
ENCODING -1
SWIDTH 558 0
DWIDTH 7 0
BBX 6 10 0 0
BITMAP
78
B4
CC
0C
14
28
38
70
7C
7C
ENDCHAR
STARTCHAR uni00B2.case
ENCODING -1
SWIDTH 339 0
DWIDTH 4 0
BBX 2 5 1 5
BITMAP
C0
40
C0
C0
C0
ENDCHAR
STARTCHAR underscore.case
ENCODING -1
SWIDTH 667 0
DWIDTH 8 0
BBX 6 2 1 0
BITMAP
FC
FC
ENDCHAR
STARTCHAR yen.case
ENCODING -1
SWIDTH 769 0
DWIDTH 9 0
BBX 9 10 0 0
BITMAP
E380
5300
7700
3A00
1400
0800
2E00
2E00
2E00
0C00
ENDCHAR
STARTCHAR zero.case
ENCODING -1
SWIDTH 558 0
DWIDTH 7 0
BBX 6 10 0 0
BITMAP
38
74
CC
CC
CC
CC
CC
CC
74
38
ENDCHAR
ENDFONT
